
<svg width="44px" height="44px" viewBox="0 0 44 44" version="1.1" xmlns="http://www.w3.org/2000/svg" xmlns:xlink="http://www.w3.org/1999/xlink">
    <!-- Generator: Sketch 51 (57462) - http://www.bohemiancoding.com/sketch -->
    <desc>Created with Sketch.</desc>
    <defs></defs>
    <g id="Page-1" stroke="none" stroke-width="1" fill="none" fill-rule="evenodd">
        <g id="选择上车站点" transform="translate(-40.000000, -686.000000)">
            <rect fill="#FFFFFF" x="0" y="0" width="750" height="1334"></rect>
            <g id="icon/44/单选/选中" transform="translate(40.000000, 686.000000)">
                <g id="选中">
                    <path d="M44,22.2716049 C44,9.84948148 34.1505185,0 21.7283951,0 C9.84948148,0 0,9.84948148 0,22.2716049 C0,34.1505185 9.84948148,44 21.7283951,44 C34.1505185,44 44,34.1505185 44,22.2716049 Z" id="Fill-" fill="#13C47D"></path>
                    <path d="M10.3157062,23.9457504 C9.93368717,23.5525013 9.89558664,22.8661497 10.2165559,22.4317567 L10.3735093,22.2193392 C10.7007691,21.7764327 11.3214274,21.6882888 11.76334,22.0251719 L16.7784097,25.8483086 C17.2187322,26.1839796 17.9139912,26.1757699 18.3446785,25.8188979 L32.3136862,14.2440335 C32.73839,13.8921195 33.4075573,13.9259622 33.800861,14.3123033 L33.7065661,14.2196777 C34.1032062,14.6092961 34.1032,15.2398958 33.7115043,15.6233143 L18.2884324,30.7204686 C17.8945196,31.1060573 17.2634941,31.0977798 16.8834835,30.7065982 L10.3157062,23.9457504 Z" id="Fill-" fill="#FFFFFF"></path>
                </g>
            </g>
        </g>
    </g>
</svg>