<?xml version="1.0" encoding="UTF-8"?>
<svg width="44px" height="44px" viewBox="0 0 44 44" version="1.1" xmlns="http://www.w3.org/2000/svg" xmlns:xlink="http://www.w3.org/1999/xlink">
    <!-- Generator: Sketch 50.2 (55047) - http://www.bohemiancoding.com/sketch -->
    <title>icon/44/完成</title>
    <desc>Created with Sketch.</desc>
    <defs></defs>
    <g id="Page-1" stroke="none" stroke-width="1" fill="none" fill-rule="evenodd">
        <g id="Artboard" transform="translate(-914.000000, -564.000000)" fill="#09CD8A">
            <g id="icon/44/完成" transform="translate(914.000000, 564.000000)">
                <path d="M44,22.2716049 C44,34.1505185 34.1505185,44 21.7283951,44 C9.84948148,44 0,34.1505185 0,22.2716049 C0,9.84948148 9.84948148,0 21.7283951,0 C34.1505185,0 44,9.84948148 44,22.2716049 Z M11.5372833,24.316014 L17.6113123,30.620296 C17.9881472,31.0114159 18.6161255,31.0205198 19.0076498,30.6341003 L33.3748896,16.4541865 C33.7684942,16.0657139 33.7628921,15.436672 33.3670235,15.0445963 L33.5433105,15.2191943 C33.1437918,14.8235034 32.4859954,14.7937793 32.0659285,15.144729 L19.0597935,26.010853 C18.643971,26.3582567 17.9424438,26.372093 17.5023689,26.033837 L12.9039695,22.4993565 C12.4577964,22.1564133 11.8421746,22.2484581 11.515319,22.6944751 L11.4416877,22.7949501 C11.1165,23.2386911 11.1576317,23.9219706 11.5372833,24.316014 Z" id="Combined-Shape"></path>
            </g>
        </g>
    </g>
</svg>